# xmcd
# 
# Track frame offsets:
#   150
#   17100
#   34411
#   51839
#   68324
#   86957
#   109265
#   126028
#   146703
#   166371
#   181173
#   201318
#   220533
#   239083
#   259137
#   277818
# 
# Disc length: 3931 seconds
# 
# Revision: 0
# Processed by: cddbd v1.5.1PL2 Copyright (c) Steve Scherf et al.
# Submitted via: Synapstar 1.0 
# 
DISCID=eb0f5910
DTITLE=Various Artist - legend Series Vol.159
DYEAR=1900
DGENRE=Country
TTITLE0=Shania Twain - You're Still The One
TTITLE1=Shania Twain - Don't be Stupid (you know I love you)
TTITLE2=Shania Twain - Honey I'm Home
TTITLE3=Shania Twain - You've Got A Way (pop mix)
TTITLE4=Shania Twain - Man! I Feel Like A Woman
TTITLE5=Shania Twain - The Woman In Me
TTITLE6=Shania Twain - I'm holding On To Love
TTITLE7=Shania Twain - Rock This Country
TTITLE8=Faith Hill - Breathe
TTITLE9=Faith Hill - The Way You Love Me
TTITLE10=Faith Hill - The Secret To Life
TTITLE11=Faith Hill - That's How Love Moves
TTITLE12=Faith Hill - If I'm Not In Love
TTITLE13=Faith Hill - Let's Make Love
TTITLE14=Faith Hill - Love Is A Sweet Thing
TTITLE15=Faith Hill - Bringing Out The Elvis
EXTD=MediaType: Karaoke CD+G Producer: legend series
EXTT0=
EXTT1=
EXTT2=
EXTT3=
EXTT4=
EXTT5=
EXTT6=
EXTT7=
EXTT8=
EXTT9=
EXTT10=
EXTT11=
EXTT12=
EXTT13=
EXTT14=
EXTT15=
PLAYORDER=
